<svg width="415" height="97" viewBox="0 0 415 97" fill="none" xmlns="http://www.w3.org/2000/svg">
<g filter="url(#filter0_d_0_1)">
<rect x="4" y="3" width="407" height="89" rx="22" fill="#FE5B2A"/>
</g>
<path fill-rule="evenodd" clip-rule="evenodd" d="M255.5 58.4322C261.299 58.4322 266 52.739 266 45.7161C266 38.6932 261.299 33 255.5 33C249.701 33 245 38.6932 245 45.7161C245 47.6076 245.385 49.5956 246.155 51.68L246.326 52.1281C246.905 53.5997 246.936 55.3205 246.411 56.8237C245.923 58.2177 245.84 59.084 246.162 59.4226C246.514 59.7934 247.528 59.5042 249.203 58.555L249.655 58.2924C250.521 57.7779 251.494 57.6373 252.426 57.8874L252.658 57.9581C253.584 58.2742 254.531 58.4322 255.5 58.4322Z" fill="#FEFCFC"/>
<path fill-rule="evenodd" clip-rule="evenodd" d="M54.2123 48.5688C55.0501 48.5688 55.7273 48.6929 56.4217 48.9453L56.6832 49.046C57.0487 49.1942 57.2559 49.7144 57.1461 50.2079C57.1283 50.2883 57.1025 50.3649 57.0696 50.4356L56.9975 50.5657C56.3362 51.6587 55.9108 52.8599 55.6079 54.2638L55.5279 54.6624L55.4899 54.899C55.4488 55.2219 55.435 55.4495 55.435 55.6775C55.435 55.8054 55.4392 55.932 55.4476 56.057L55.4632 56.2432C55.52 56.809 55.2264 57.3299 54.8074 57.4066C54.7732 57.4129 54.7388 57.416 54.7044 57.416L48.2867 57.4148C47.5761 57.4148 47 56.637 47 55.6775C47 55.5824 47.0058 55.4876 47.0172 55.394L47.0387 55.2546C47.7527 51.4133 50.432 48.5688 54.2123 48.5688ZM64.4489 48.5688C68.1452 48.5688 70.7731 51.2089 71.461 55.0911L71.5049 55.3577C71.6464 56.2833 71.2054 57.1885 70.5198 57.3795C70.4356 57.403 70.3498 57.4148 70.2637 57.4148H58.5233C57.8127 57.4148 57.2366 56.637 57.2366 55.6775C57.2366 55.5824 57.2424 55.4876 57.2539 55.394L57.2753 55.2546C57.9893 51.4133 60.6687 48.5688 64.4489 48.5688ZM55.2718 33.1896C56.6272 33.628 57.9146 35.1015 57.8391 38.5621L57.8285 38.8822C57.7916 38.9587 58.2974 39.2715 58.2974 40.2781C58.2974 40.9493 58.1411 41.406 57.8285 41.6485C57.2556 45.0207 56.0622 46.7067 54.2482 46.7067C52.4343 46.7067 51.1361 45.0207 50.3539 41.6485C50.06 41.4746 49.913 41.0178 49.913 40.2781C49.913 39.5385 50.06 39.0732 50.3539 38.8822C50.3852 36.0857 50.857 34.4893 51.7695 34.0931C52.1317 33.9368 52.4744 33.9368 52.7976 34.0931C53.1244 33.0629 53.9492 32.7617 55.2718 33.1896ZM68.5407 35.9071C69.45 38.0196 69.6188 40.6001 69.0471 43.6484C69.0056 43.9649 69.1554 44.219 69.4964 44.4107L69.541 44.4337L69.597 44.4587C69.7234 44.5121 69.7938 44.6938 69.7542 44.8644C69.743 44.9129 69.7235 44.9567 69.6978 44.9927L69.6546 45.0405C69.0916 45.5266 67.4672 45.5626 66.5248 45.3107C65.9019 46.2084 65.221 46.6572 64.4823 46.6572C63.7435 46.6572 63.0551 46.2084 62.4172 45.3107C60.6325 45.1184 59.7402 43.3129 59.7402 39.8942C59.7402 36.7644 60.6713 34.7074 62.5336 33.7232C62.8546 33.5536 63.2071 33.525 63.5409 33.6416L63.788 33.728C65.5164 32.2728 67.1006 32.9992 68.5407 35.9071Z" fill="#E2E2E2"/>
<path d="M361.85 43.9349C358.865 43.9349 357.645 41.8329 359.129 39.2548C359.987 37.7604 359.475 35.8555 357.975 35.0016L355.121 33.3759C353.819 32.6041 352.136 33.0639 351.361 34.3612L351.18 34.6732C349.696 37.2513 347.255 37.2513 345.754 34.6732L345.573 34.3612C344.831 33.0639 343.148 32.6041 341.846 33.3759L338.993 35.0016C337.492 35.8555 336.981 37.7768 337.838 39.2712C339.339 41.8329 338.118 43.9349 335.133 43.9349C333.418 43.9349 332 45.3307 332 47.0549V49.9451C332 51.6529 333.402 53.0652 335.133 53.0652C338.118 53.0652 339.339 55.1671 337.838 57.7452C336.981 59.2396 337.492 61.1445 338.993 61.9984L341.846 63.6241C343.148 64.3959 344.831 63.9361 345.606 62.6388L345.787 62.3268C347.271 59.7487 349.712 59.7487 351.213 62.3268L351.394 62.6388C352.169 63.9361 353.852 64.3959 355.154 63.6241L358.007 61.9984C359.508 61.1445 360.019 59.2232 359.162 57.7452C357.661 55.1671 358.882 53.0652 361.867 53.0652C363.582 53.0652 365 51.6693 365 49.9451V47.0549C364.984 45.3471 363.582 43.9349 361.85 43.9349ZM348.492 53.837C345.54 53.837 343.132 51.4394 343.132 48.5C343.132 45.5606 345.54 43.163 348.492 43.163C351.444 43.163 353.852 45.5606 353.852 48.5C353.852 51.4394 351.444 53.837 348.492 53.837Z" fill="black"/>
<path d="M156.765 56.1999L151.902 50.8071L156.765 56.1999ZM154.597 43.5999C154.597 46.3051 153.626 48.8995 151.898 50.8124C150.17 52.7253 147.826 53.7999 145.383 53.7999C142.939 53.7999 140.595 52.7253 138.867 50.8124C137.139 48.8995 136.168 46.3051 136.168 43.5999C136.168 40.8947 137.139 38.3003 138.867 36.3874C140.595 34.4745 142.939 33.3999 145.383 33.3999C147.826 33.3999 150.17 34.4745 151.898 36.3874C153.626 38.3003 154.597 40.8947 154.597 43.5999V43.5999Z" stroke="#FEFCFC" stroke-width="2" stroke-linecap="round"/>
<defs>
<filter id="filter0_d_0_1" x="0" y="0" width="415" height="97" filterUnits="userSpaceOnUse" color-interpolation-filters="sRGB">
<feFlood flood-opacity="0" result="BackgroundImageFix"/>
<feColorMatrix in="SourceAlpha" type="matrix" values="0 0 0 0 0 0 0 0 0 0 0 0 0 0 0 0 0 0 127 0" result="hardAlpha"/>
<feOffset dy="1"/>
<feGaussianBlur stdDeviation="2"/>
<feComposite in2="hardAlpha" operator="out"/>
<feColorMatrix type="matrix" values="0 0 0 0 0 0 0 0 0 0 0 0 0 0 0 0 0 0 0.25 0"/>
<feBlend mode="normal" in2="BackgroundImageFix" result="effect1_dropShadow_0_1"/>
<feBlend mode="normal" in="SourceGraphic" in2="effect1_dropShadow_0_1" result="shape"/>
</filter>
</defs>
</svg>
